<mxfile host="65bd71144e">
    <diagram id="lFZE58likl-l5CEodqG_" name="第 1 页">
        <mxGraphModel dx="1461" dy="436" grid="0" gridSize="10" guides="1" tooltips="1" connect="1" arrows="1" fold="1" page="1" pageScale="1" pageWidth="827" pageHeight="1169" background="#ffffff" math="0" shadow="1">
            <root>
                <mxCell id="0"/>
                <mxCell id="1" parent="0"/>
                <mxCell id="4" value="" style="edgeStyle=none;html=1;fontSize=14;" edge="1" parent="1" source="2" target="3">
                    <mxGeometry relative="1" as="geometry"/>
                </mxCell>
                <mxCell id="21" value="" style="edgeStyle=none;html=1;labelBackgroundColor=#FFFFFF;fontSize=14;fontColor=#000000;" edge="1" parent="1" source="2" target="20">
                    <mxGeometry relative="1" as="geometry"/>
                </mxCell>
                <mxCell id="23" value="" style="edgeStyle=none;html=1;labelBackgroundColor=#FFFFFF;fontSize=14;fontColor=#FF3333;" edge="1" parent="1" source="2" target="22">
                    <mxGeometry relative="1" as="geometry"/>
                </mxCell>
                <mxCell id="2" value="&lt;font style=&quot;font-size: 14px;&quot;&gt;首页index&lt;/font&gt;" style="rounded=0;whiteSpace=wrap;html=1;fillColor=#f5f5f5;fontColor=#333333;strokeColor=#666666;" parent="1" vertex="1">
                    <mxGeometry x="173" y="130" width="71" height="24" as="geometry"/>
                </mxCell>
                <mxCell id="6" value="" style="edgeStyle=none;html=1;fontSize=14;" edge="1" parent="1" source="3" target="5">
                    <mxGeometry relative="1" as="geometry"/>
                </mxCell>
                <mxCell id="8" value="" style="edgeStyle=none;html=1;fontSize=14;" edge="1" parent="1" source="3" target="7">
                    <mxGeometry relative="1" as="geometry"/>
                </mxCell>
                <mxCell id="47" style="edgeStyle=none;html=1;labelBackgroundColor=#FFFFFF;fontSize=14;fontColor=#000000;fillColor=#f8cecc;strokeColor=#b85450;strokeWidth=2;" edge="1" parent="1" source="3" target="42">
                    <mxGeometry relative="1" as="geometry">
                        <Array as="points">
                            <mxPoint x="339" y="324"/>
                        </Array>
                    </mxGeometry>
                </mxCell>
                <mxCell id="3" value="&lt;font style=&quot;font-size: 14px;&quot;&gt;&lt;font color=&quot;#ff3333&quot;&gt;点击&lt;/font&gt;驾校sdetail&lt;/font&gt;" style="rounded=0;whiteSpace=wrap;html=1;fillColor=#f5f5f5;fontColor=#333333;strokeColor=#666666;" vertex="1" parent="1">
                    <mxGeometry x="153.5" y="185" width="110" height="24" as="geometry"/>
                </mxCell>
                <mxCell id="9" style="edgeStyle=none;html=1;fontSize=14;fillColor=#f8cecc;strokeColor=#b85450;strokeWidth=2;" edge="1" parent="1" source="5" target="7">
                    <mxGeometry relative="1" as="geometry"/>
                </mxCell>
                <mxCell id="45" style="edgeStyle=none;html=1;labelBackgroundColor=#FFFFFF;fontSize=14;fontColor=#000000;fillColor=#f8cecc;strokeColor=#b85450;strokeWidth=2;" edge="1" parent="1" source="5" target="42">
                    <mxGeometry relative="1" as="geometry">
                        <Array as="points">
                            <mxPoint x="343" y="325"/>
                        </Array>
                    </mxGeometry>
                </mxCell>
                <mxCell id="46" value="&lt;span style=&quot;background-color: rgb(255, 255, 255);&quot;&gt;已报名，订单状态为2&lt;/span&gt;" style="edgeLabel;html=1;align=center;verticalAlign=middle;resizable=0;points=[];fontSize=14;fontColor=#000000;" vertex="1" connectable="0" parent="45">
                    <mxGeometry x="-0.3613" y="2" relative="1" as="geometry">
                        <mxPoint as="offset"/>
                    </mxGeometry>
                </mxCell>
                <mxCell id="5" value="&lt;font style=&quot;font-size: 14px;&quot;&gt;&lt;font color=&quot;#ff3333&quot;&gt;点击&lt;/font&gt;班型classtype&lt;/font&gt;" style="rounded=0;whiteSpace=wrap;html=1;fillColor=#f5f5f5;fontColor=#333333;strokeColor=#666666;" vertex="1" parent="1">
                    <mxGeometry x="285" y="185" width="120.5" height="24" as="geometry"/>
                </mxCell>
                <mxCell id="13" value="" style="edgeStyle=none;html=1;labelBackgroundColor=#FFFFFF;fontSize=14;fontColor=#FF3333;" edge="1" parent="1" source="7" target="12">
                    <mxGeometry relative="1" as="geometry"/>
                </mxCell>
                <mxCell id="36" value="&lt;font style=&quot;background-color: rgb(255, 255, 255);&quot;&gt;报名成功成功&lt;/font&gt;" style="edgeLabel;html=1;align=center;verticalAlign=middle;resizable=0;points=[];fontSize=14;fontColor=#000000;" vertex="1" connectable="0" parent="13">
                    <mxGeometry x="-0.2787" y="2" relative="1" as="geometry">
                        <mxPoint as="offset"/>
                    </mxGeometry>
                </mxCell>
                <mxCell id="18" value="" style="edgeStyle=none;html=1;labelBackgroundColor=#FFFFFF;fontSize=14;fontColor=#000000;fillColor=#f8cecc;strokeColor=#b85450;strokeWidth=2;" edge="1" parent="1" source="7" target="17">
                    <mxGeometry relative="1" as="geometry"/>
                </mxCell>
                <mxCell id="7" value="&lt;font style=&quot;font-size: 14px;&quot;&gt;&lt;font color=&quot;#ff3333&quot;&gt;点击&lt;/font&gt;立即报名signup&lt;/font&gt;" style="rounded=0;whiteSpace=wrap;html=1;fillColor=#f5f5f5;fontColor=#333333;strokeColor=#666666;" vertex="1" parent="1">
                    <mxGeometry x="141.25" y="235" width="134.5" height="24" as="geometry"/>
                </mxCell>
                <mxCell id="11" value="&lt;span style=&quot;background-color: rgb(255, 255, 255);&quot;&gt;&lt;font color=&quot;#ff3333&quot;&gt;点击&lt;/font&gt;&lt;font color=&quot;#000000&quot;&gt;前往报名&lt;/font&gt;&lt;/span&gt;" style="edgeStyle=none;html=1;fontSize=14;align=center;" edge="1" parent="1" source="10" target="2">
                    <mxGeometry x="-0.0588" y="-12" relative="1" as="geometry">
                        <mxPoint as="offset"/>
                    </mxGeometry>
                </mxCell>
                <mxCell id="40" style="edgeStyle=none;html=1;labelBackgroundColor=#FFFFFF;fontSize=14;fontColor=#000000;" edge="1" parent="1" source="10" target="34">
                    <mxGeometry relative="1" as="geometry">
                        <Array as="points"/>
                    </mxGeometry>
                </mxCell>
                <mxCell id="41" value="&lt;span style=&quot;background-color: rgb(255, 255, 255);&quot;&gt;有订单，订单状态不为2&lt;/span&gt;" style="edgeLabel;html=1;align=center;verticalAlign=middle;resizable=0;points=[];fontSize=14;fontColor=#000000;" vertex="1" connectable="0" parent="40">
                    <mxGeometry x="0.0582" y="1" relative="1" as="geometry">
                        <mxPoint x="-3" y="-27" as="offset"/>
                    </mxGeometry>
                </mxCell>
                <mxCell id="43" value="" style="edgeStyle=none;html=1;labelBackgroundColor=#FFFFFF;fontSize=14;fontColor=#000000;" edge="1" parent="1" source="10" target="42">
                    <mxGeometry relative="1" as="geometry"/>
                </mxCell>
                <mxCell id="44" value="&lt;span style=&quot;background-color: rgb(255, 255, 255);&quot;&gt;有订单，订单状态为2&lt;/span&gt;" style="edgeLabel;html=1;align=center;verticalAlign=middle;resizable=0;points=[];fontSize=14;fontColor=#000000;" vertex="1" connectable="0" parent="43">
                    <mxGeometry x="-0.2211" relative="1" as="geometry">
                        <mxPoint as="offset"/>
                    </mxGeometry>
                </mxCell>
                <mxCell id="10" value="&lt;font style=&quot;font-size: 14px;&quot;&gt;我的mine&lt;/font&gt;" style="rounded=0;whiteSpace=wrap;html=1;fillColor=#f5f5f5;fontColor=#333333;strokeColor=#666666;" vertex="1" parent="1">
                    <mxGeometry x="478" y="130" width="71" height="24" as="geometry"/>
                </mxCell>
                <mxCell id="35" value="" style="edgeStyle=none;html=1;labelBackgroundColor=#FFFFFF;fontSize=14;fontColor=#000000;" edge="1" parent="1" source="12" target="24">
                    <mxGeometry relative="1" as="geometry"/>
                </mxCell>
                <mxCell id="38" style="edgeStyle=none;html=1;labelBackgroundColor=#FFFFFF;fontSize=14;fontColor=#000000;" edge="1" parent="1" source="12" target="29">
                    <mxGeometry relative="1" as="geometry">
                        <Array as="points">
                            <mxPoint x="37" y="351"/>
                        </Array>
                    </mxGeometry>
                </mxCell>
                <mxCell id="12" value="电子合同qyjf" style="rounded=0;whiteSpace=wrap;html=1;fillColor=#f5f5f5;fontColor=#333333;strokeColor=#666666;" vertex="1" parent="1">
                    <mxGeometry x="141.25" y="320" width="134.5" height="24" as="geometry"/>
                </mxCell>
                <mxCell id="19" style="edgeStyle=none;html=1;labelBackgroundColor=#FFFFFF;fontSize=14;fontColor=#000000;" edge="1" parent="1" source="17" target="10">
                    <mxGeometry relative="1" as="geometry">
                        <Array as="points">
                            <mxPoint x="452" y="234"/>
                        </Array>
                    </mxGeometry>
                </mxCell>
                <mxCell id="17" value="&lt;span style=&quot;font-size: 14px;&quot;&gt;报名失败&lt;/span&gt;" style="rounded=0;whiteSpace=wrap;html=1;fillColor=#f5f5f5;fontColor=#333333;strokeColor=#666666;" vertex="1" parent="1">
                    <mxGeometry x="297" y="235" width="82" height="24" as="geometry"/>
                </mxCell>
                <mxCell id="20" value="&lt;span style=&quot;font-size: 14px;&quot;&gt;&lt;font color=&quot;#ff3333&quot;&gt;点击&lt;/font&gt;筛选sfliter&lt;/span&gt;" style="rounded=0;whiteSpace=wrap;html=1;fillColor=#f5f5f5;fontColor=#333333;strokeColor=#666666;" vertex="1" parent="1">
                    <mxGeometry x="47" y="130" width="101" height="24" as="geometry"/>
                </mxCell>
                <mxCell id="22" value="&lt;font style=&quot;font-size: 14px;&quot;&gt;&lt;font color=&quot;#ff3333&quot;&gt;点击&lt;/font&gt;搜索search&lt;/font&gt;" style="rounded=0;whiteSpace=wrap;html=1;fillColor=#f5f5f5;fontColor=#333333;strokeColor=#666666;" vertex="1" parent="1">
                    <mxGeometry x="150.5" y="80" width="116" height="24" as="geometry"/>
                </mxCell>
                <mxCell id="39" style="edgeStyle=none;html=1;labelBackgroundColor=#FFFFFF;fontSize=14;fontColor=#000000;" edge="1" parent="1" source="24" target="34">
                    <mxGeometry relative="1" as="geometry"/>
                </mxCell>
                <mxCell id="24" value="&lt;font color=&quot;#000000&quot;&gt;&lt;span style=&quot;font-size: 14px;&quot;&gt;订单状态大于2，跳转&lt;/span&gt;&lt;/font&gt;" style="rounded=0;whiteSpace=wrap;html=1;fillColor=#f5f5f5;fontColor=#333333;strokeColor=#666666;" vertex="1" parent="1">
                    <mxGeometry x="127.25" y="383" width="169.75" height="24" as="geometry"/>
                </mxCell>
                <mxCell id="30" style="edgeStyle=none;html=1;labelBackgroundColor=#FFFFFF;fontSize=14;fontColor=#FF3333;" edge="1" parent="1" source="29" target="34">
                    <mxGeometry relative="1" as="geometry">
                        <Array as="points">
                            <mxPoint x="307" y="565"/>
                        </Array>
                    </mxGeometry>
                </mxCell>
                <mxCell id="31" value="&lt;font style=&quot;background-color: rgb(255, 255, 255);&quot; color=&quot;#000000&quot;&gt;支付成功&lt;/font&gt;" style="edgeLabel;html=1;align=center;verticalAlign=middle;resizable=0;points=[];fontSize=14;fontColor=#FF3333;" vertex="1" connectable="0" parent="30">
                    <mxGeometry x="-0.3041" relative="1" as="geometry">
                        <mxPoint as="offset"/>
                    </mxGeometry>
                </mxCell>
                <mxCell id="29" value="&lt;p style=&quot;line-height: 80%;&quot;&gt;&lt;/p&gt;&lt;div style=&quot;text-align: center;&quot;&gt;&lt;span style=&quot;font-size: 14px; background-color: initial;&quot;&gt;&lt;font color=&quot;#ff3333&quot;&gt;点击&lt;/font&gt;&lt;/span&gt;&lt;span style=&quot;font-size: 14px; color: rgb(0, 0, 0); background-color: initial;&quot;&gt;立即支付，跳转到其他小程序confirm-pay&lt;/span&gt;&lt;/div&gt;&lt;span style=&quot;color: rgba(0, 0, 0, 0); font-family: monospace; font-size: 0px;&quot;&gt;&lt;div style=&quot;text-align: center;&quot;&gt;&lt;span style=&quot;background-color: initial;&quot;&gt;%3CmxGraphModel%3E%3Croot%3E%3CmxCell%20id%3D%220%22%2F%3E%3CmxCell%20id%3D%221%22%20parent%3D%220%22%2F%3E%3CmxCell%20id%3D%222%22%20value%3D%22%26lt%3Bspan%20style%3D%26quot%3Bfont-size%3A%2014px%3B%26quot%3B%26gt%3B%26lt%3Bfont%20color%3D%26quot%3B%23000000%26quot%3B%26gt%3B%E6%8A%A5%E5%90%8D%E6%88%90%E5%8A%9F%E6%88%90%E5%8A%9Fqyjf%26lt%3B%2Ffont%26gt%3B%26lt%3B%2Fspan%26gt%3B%22%20style%3D%22rounded%3D0%3BwhiteSpace%3Dwrap%3Bhtml%3D1%3BfillColor%3D%23f5f5f5%3BfontColor%3D%23333333%3BstrokeColor%3D%23666666%3B%22%20vertex%3D%221%22%20parent%3D%221%22%3E%3CmxGeometry%20x%3D%22141.25%22%20y%3D%22276%22%20width%3D%22134.5%22%20height%3D%2224%22%20as%3D%22geometry%22%2F%3E%3C%2FmxCell%3E%3C%2Froot%3E%3C%2FmxGraphModel%3E&lt;/span&gt;&lt;span style=&quot;background-color: initial;&quot;&gt;%3CmxGraphModel%3E%3Croot%3E%3CmxCell%20id%3D%220%22%2F%3E%3CmxCell%20id%3D%221%22%20parent%3D%220%22%2F%3E%3CmxCell%20id%3D%222%22%20value%3D%22%26lt%3Bspan%20style%3D%26quot%3Bfont-size%3A%2014px%3B%26quot%3B%26gt%3B%26lt%3Bfont%20color%3D%26quot%3B%23000000%26quot%3B%26gt%3B%E6%8A%A5%E5%90%8D%E6%88%90%E5%8A%9F%E6%88%90%E5%8A%9Fqyjf%26lt%3B%2Ffont%26gt%3B%26lt%3B%2Fspan%26gt%3B%22%20style%3D%22rounded%3D0%3BwhiteSpace%3Dwrap%3Bhtml%3D1%3BfillColor%3D%23f5f5f5%3BfontColor%3D%23333333%3BstrokeColor%3D%23666666%3B%22%20vertex%3D%221%22%20parent%3D%221%22%3E%3CmxGeometry%20x%3D%22141.25%22%20y%3D%22276%22%20width%3D%22134.5%22%20height%3D%2224%22%20as%3D%22geometry%22%2F%3E%3C%2FmxCell%3E%3C%2Froot%3E%3C%2FmxGraphModel%3E&lt;/span&gt;&lt;/div&gt;&lt;/span&gt;&lt;p&gt;&lt;/p&gt;" style="rounded=0;whiteSpace=wrap;html=1;fillColor=#f5f5f5;fontColor=#333333;strokeColor=#666666;align=right;" vertex="1" parent="1">
                    <mxGeometry x="-56" y="446" width="288" height="24" as="geometry"/>
                </mxCell>
                <mxCell id="52" value="" style="edgeStyle=none;html=1;labelBackgroundColor=#FFFFFF;strokeColor=default;strokeWidth=2;fontSize=14;fontColor=#000000;" edge="1" parent="1" source="34" target="51">
                    <mxGeometry relative="1" as="geometry"/>
                </mxCell>
                <mxCell id="53" value="&lt;span style=&quot;background-color: rgb(255, 255, 255);&quot;&gt;&lt;font color=&quot;#ff3333&quot;&gt;点击&lt;/font&gt;申请退学&lt;/span&gt;" style="edgeLabel;html=1;align=center;verticalAlign=middle;resizable=0;points=[];fontSize=14;fontColor=#000000;" vertex="1" connectable="0" parent="52">
                    <mxGeometry x="-0.1909" y="2" relative="1" as="geometry">
                        <mxPoint as="offset"/>
                    </mxGeometry>
                </mxCell>
                <mxCell id="54" style="edgeStyle=none;html=1;labelBackgroundColor=#FFFFFF;strokeColor=#b85450;strokeWidth=2;fontSize=14;fontColor=#FF3333;fillColor=#f8cecc;" edge="1" parent="1" source="34" target="12">
                    <mxGeometry relative="1" as="geometry">
                        <Array as="points">
                            <mxPoint x="381" y="377"/>
                        </Array>
                    </mxGeometry>
                </mxCell>
                <mxCell id="55" value="&lt;span style=&quot;background-color: rgb(255, 255, 255);&quot;&gt;点击&lt;font color=&quot;#000000&quot;&gt;立即签约缴费&lt;/font&gt;&lt;/span&gt;" style="edgeLabel;html=1;align=center;verticalAlign=middle;resizable=0;points=[];fontSize=14;fontColor=#FF3333;" vertex="1" connectable="0" parent="54">
                    <mxGeometry x="0.3029" y="1" relative="1" as="geometry">
                        <mxPoint x="5" y="11" as="offset"/>
                    </mxGeometry>
                </mxCell>
                <mxCell id="57" value="" style="edgeStyle=none;html=1;labelBackgroundColor=#FFFFFF;strokeColor=default;strokeWidth=2;fontSize=14;fontColor=#000000;" edge="1" parent="1" source="34" target="56">
                    <mxGeometry relative="1" as="geometry"/>
                </mxCell>
                <mxCell id="58" value="&lt;span style=&quot;background-color: rgb(255, 255, 255);&quot;&gt;&lt;font color=&quot;#ff3333&quot;&gt;点击&lt;/font&gt;确认退费&lt;/span&gt;" style="edgeLabel;html=1;align=center;verticalAlign=middle;resizable=0;points=[];fontSize=14;fontColor=#000000;" vertex="1" connectable="0" parent="57">
                    <mxGeometry x="-0.1103" y="3" relative="1" as="geometry">
                        <mxPoint as="offset"/>
                    </mxGeometry>
                </mxCell>
                <mxCell id="34" value="订单详情&lt;span style=&quot;color: rgb(0, 0, 0); font-size: 14px;&quot;&gt;orderdetail&lt;/span&gt;" style="rounded=0;whiteSpace=wrap;html=1;fillColor=#f5f5f5;fontColor=#333333;strokeColor=#666666;" vertex="1" parent="1">
                    <mxGeometry x="414.5" y="572" width="134.5" height="24" as="geometry"/>
                </mxCell>
                <mxCell id="48" value="订单状态大于2" style="edgeStyle=none;html=1;labelBackgroundColor=#FFFFFF;strokeColor=default;strokeWidth=2;fontSize=14;fontColor=#000000;" edge="1" parent="1" source="42" target="34">
                    <mxGeometry x="0.0002" relative="1" as="geometry">
                        <mxPoint as="offset"/>
                    </mxGeometry>
                </mxCell>
                <mxCell id="49" style="edgeStyle=none;html=1;labelBackgroundColor=#FFFFFF;strokeColor=#b85450;strokeWidth=2;fontSize=14;fontColor=#000000;fillColor=#f8cecc;" edge="1" parent="1" source="42" target="29">
                    <mxGeometry relative="1" as="geometry">
                        <Array as="points">
                            <mxPoint x="393" y="452"/>
                        </Array>
                    </mxGeometry>
                </mxCell>
                <mxCell id="50" value="&lt;span style=&quot;background-color: rgb(255, 255, 255);&quot;&gt;不是V2订单&lt;/span&gt;" style="edgeLabel;html=1;align=center;verticalAlign=middle;resizable=0;points=[];fontSize=14;fontColor=#000000;" vertex="1" connectable="0" parent="49">
                    <mxGeometry x="-0.4977" y="2" relative="1" as="geometry">
                        <mxPoint x="-202" y="72" as="offset"/>
                    </mxGeometry>
                </mxCell>
                <mxCell id="42" value="&lt;span style=&quot;font-size: 14px;&quot;&gt;支付页面pay&lt;/span&gt;" style="rounded=0;whiteSpace=wrap;html=1;fillColor=#f5f5f5;fontColor=#333333;strokeColor=#666666;" vertex="1" parent="1">
                    <mxGeometry x="632" y="307" width="99" height="23" as="geometry"/>
                </mxCell>
                <mxCell id="51" value="退学refund" style="rounded=0;whiteSpace=wrap;html=1;fillColor=#f5f5f5;fontColor=#333333;strokeColor=#666666;" vertex="1" parent="1">
                    <mxGeometry x="229" y="668" width="112.5" height="24" as="geometry"/>
                </mxCell>
                <mxCell id="60" value="" style="edgeStyle=none;html=1;labelBackgroundColor=#FFFFFF;strokeColor=default;strokeWidth=2;fontSize=14;fontColor=#FF3333;" edge="1" parent="1" source="56" target="59">
                    <mxGeometry relative="1" as="geometry"/>
                </mxCell>
                <mxCell id="61" value="&lt;span style=&quot;background-color: rgb(255, 255, 255);&quot;&gt;点击&lt;font color=&quot;#000000&quot;&gt;我有异议&lt;/font&gt;&lt;/span&gt;" style="edgeLabel;html=1;align=center;verticalAlign=middle;resizable=0;points=[];fontSize=14;fontColor=#FF3333;" vertex="1" connectable="0" parent="60">
                    <mxGeometry x="-0.1853" relative="1" as="geometry">
                        <mxPoint as="offset"/>
                    </mxGeometry>
                </mxCell>
                <mxCell id="56" value="退费&lt;font color=&quot;#000000&quot;&gt;&lt;span style=&quot;font-size: 14px;&quot;&gt;confirmpass&lt;/span&gt;&lt;/font&gt;" style="rounded=0;whiteSpace=wrap;html=1;fillColor=#f5f5f5;fontColor=#333333;strokeColor=#666666;" vertex="1" parent="1">
                    <mxGeometry x="414.5" y="715" width="134.5" height="24" as="geometry"/>
                </mxCell>
                <mxCell id="59" value="异议objection" style="rounded=0;whiteSpace=wrap;html=1;fillColor=#f5f5f5;fontColor=#333333;strokeColor=#666666;" vertex="1" parent="1">
                    <mxGeometry x="414.5" y="819" width="134.5" height="24" as="geometry"/>
                </mxCell>
            </root>
        </mxGraphModel>
    </diagram>
</mxfile>